# xmcd CD database file
#
# Track frame offsets:
#	150
#	26562
#	45206
#	62822
#	85065
#	101395
#	121089
#	135640
#	157221
#	183465
#	205085
#	228572
#
# Disc length: 3304 seconds
#
# Revision: 0
# Processed by: cddbd v1.5PL3 Copyright (c) Steve Scherf et al.
# Submitted via: CDex 1.51
#
DISCID=970ce60c
DTITLE=Pacific Moon - Healing Collection IV
DYEAR=2004
DGENRE=New Age
TTITLE0=Distant Thunder
TTITLE1=Seasons
TTITLE2=Moonlight
TTITLE3=Milky Way
TTITLE4=Aqua
TTITLE5=In the Garden
TTITLE6=Shanghai Twilight
TTITLE7=Scenes of Spring
TTITLE8=A Day Goes By
TTITLE9=Water's Edge
TTITLE10=Moon Over The Border
TTITLE11=Pacific Moon - White Garden
EXTD=YEAR: 2004
EXTT0=
EXTT1=
EXTT2=
EXTT3=
EXTT4=
EXTT5=
EXTT6=
EXTT7=
EXTT8=
EXTT9=
EXTT10=
EXTT11=
PLAYORDER=
